<svg id="Capa_2" data-name="Capa 2" xmlns="http://www.w3.org/2000/svg" viewBox="0 0 304.28 328.09"><defs><style>.cls-1{fill:none;}.cls-1,.cls-3{stroke:#e8e8e8;stroke-miterlimit:10;stroke-width:3px;}.cls-2,.cls-3{fill:#e8e8e8;}</style></defs><title>cute_error</title><path class="cls-1" d="M232,262.43c8.73-4.85,37-3.27,46.46-2.59a4.39,4.39,0,0,0,4.35-2.61c20.8-46.93,50.4-54.6,59.8-55.85a4.21,4.21,0,0,1,4.31,2.3c20.89,41.47,9.87,81.32,5.77,93.09a56.21,56.21,0,0,0-2.23,8.57h0a88.36,88.36,0,0,0-1.32,16.08c.15,48.86-36.31,79.36-44.16,85.35a21.41,21.41,0,0,0-2.92,2.71h0a77.46,77.46,0,0,0-10,14c-8.79,15.86-24.48,37.68-39,38-13.8.34-32.66-30.15-38.08-40.43q-1.55-2.94-2.81-6h0a23.29,23.29,0,0,0-5.1-7.63h0a8.1,8.1,0,0,0-1.42-1.13c-39.25-24.76-46.91-78.48-48.37-101.73a209.88,209.88,0,0,0-2.56-22.22c-3.19-18.67-7-56.51,8.48-79.31a7.09,7.09,0,0,1,9.43-2.09c11.51,6.7,38.91,25.43,59.34,61.48" transform="translate(-98.58 -134.9)"/><path class="cls-1" d="M214.33,235.61s7-20.23,16.39-42.67c9.36-22.28,21.17-46.76,31-55.79a2.87,2.87,0,0,1,3.92,0c5.27,5,20.2,24.11,35.48,87.67" transform="translate(-98.58 -134.9)"/><path class="cls-1" d="M289.84,185.45,261,169.33a2.83,2.83,0,0,0-3.23.33l-27,23.28" transform="translate(-98.58 -134.9)"/><path class="cls-2" d="M284.08,404.51a61.09,61.09,0,0,1,2.5-22.81,40.06,40.06,0,0,1,3.53-8.28,38.06,38.06,0,0,1,6.46-8A97.82,97.82,0,0,1,313,352.27a73,73,0,0,0,8.74-5.93,31.49,31.49,0,0,0,8.38-10.91c.84-1.89-2-3.55-2.81-1.64a28.82,28.82,0,0,1-7.4,9.84,57.1,57.1,0,0,1-8,5.5A100.72,100.72,0,0,0,295.45,362a47.08,47.08,0,0,0-7.28,8.36,41.09,41.09,0,0,0-4.07,8.48,62.21,62.21,0,0,0-3.23,16.6,58.31,58.31,0,0,0,0,9.06c.18,2.07,3.43,2.08,3.25,0Z" transform="translate(-98.58 -134.9)"/><path class="cls-1" d="M283.51,393.21s33.54-9.18,37.07-47.3" transform="translate(-98.58 -134.9)"/><path class="cls-2" d="M227.6,404.51a78.88,78.88,0,0,0-.91-14.88,75.25,75.25,0,0,0-3.76-15.36,51.45,51.45,0,0,0-8.59-15.33,39.17,39.17,0,0,0-6.66-6.27c-2.74-2-5.84-3.42-8.76-5.17-7.33-4.4-14.11-10.82-17.79-18.65-.89-1.89-3.69-.24-2.81,1.64,3.2,6.79,8.77,12.65,14.78,17a96.74,96.74,0,0,0,9.43,5.65,33.46,33.46,0,0,1,7.15,5.48c7.89,7.88,11.74,18.93,13.55,29.72a75.77,75.77,0,0,1,1.12,16.13c-.11,2.09,3.14,2.08,3.25,0Z" transform="translate(-98.58 -134.9)"/><path class="cls-1" d="M195.26,347.67s-9.83,30.67,30.21,45.17" transform="translate(-98.58 -134.9)"/><ellipse class="cls-3" cx="155.23" cy="279.9" rx="4.48" ry="26.57"/><path class="cls-3" d="M253.08,461.49v-4.85l-5-5a1,1,0,0,1,.71-1.74h9.53a.88.88,0,0,1,.58,1.53l-5.86,5.17" transform="translate(-98.58 -134.9)"/><ellipse class="cls-3" cx="278.14" cy="360.29" rx="8.57" ry="5.03" transform="translate(-271.52 286.13) rotate(-60)"/><ellipse class="cls-3" cx="232.24" cy="358.41" rx="5.03" ry="8.57" transform="translate(-255.04 46.57) rotate(-32.58)"/><path class="cls-3" d="M338.55,291.06c-5.6-6.91-30.75-21.76-38.46-26.22a3.1,3.1,0,0,1-1.32-3.83c2.71-6.73,11.74-25.23,32-34.63a5.47,5.47,0,0,1,7.16,2.48c3.67,7.16,8.59,24.72.58,62.2" transform="translate(-98.58 -134.9)"/><path class="cls-3" d="M173.47,295.48c5.59-6.91,30.75-21.76,38.45-26.22a3.07,3.07,0,0,0,1.32-3.82c-2.71-6.74-11.74-25.24-32-34.63a5.46,5.46,0,0,0-7.16,2.47c-3.67,7.16-8.59,24.73-.57,62.2" transform="translate(-98.58 -134.9)"/><path class="cls-1" d="M341.46,359.59s14.08,16.1,28.86,35.44,28,45,31,58.05a2.88,2.88,0,0,1-2,3.39c-7,2.06-52.33-.53-109.23-28.38" transform="translate(-98.58 -134.9)"/><path class="cls-1" d="M347.4,450.05l28.34-17a2.84,2.84,0,0,0,1.33-3l-6.75-35" transform="translate(-98.58 -134.9)"/><path class="cls-1" d="M218.79,428.34S191.56,437.86,168,444c-23.4,6.08-52.38,8.39-65.55,6a2.88,2.88,0,0,1-2.35-3.15c.8-7.26,20.73-48.07,68.45-89.75" transform="translate(-98.58 -134.9)"/><path class="cls-1" d="M126.1,401.46l4.73,32.76a2.83,2.83,0,0,0,2.22,2.37L168,444" transform="translate(-98.58 -134.9)"/></svg>