<?xml version="1.0" encoding="utf-8"?>
<!-- Generator: Adobe Illustrator 23.0.6, SVG Export Plug-In . SVG Version: 6.00 Build 0)  -->
<svg version="1.1" id="Capa_1" xmlns="http://www.w3.org/2000/svg" xmlns:xlink="http://www.w3.org/1999/xlink" x="0px" y="0px"
	 viewBox="0 0 700 700" style="enable-background:new 0 0 700 700;" xml:space="preserve">
<style type="text/css">
	.st0{fill:#E5E5E5;}
	.st1{fill:#E5E5E5;stroke:#E5E5E5;stroke-width:1.351;stroke-miterlimit:10;}
</style>
<g>
	<g>
		<path class="st0" d="M159.4,541.5c-4.1,0.1-7.6-0.1-10.4-0.8c-2.2-0.5-3.9-1.5-5.2-2.9c-0.3-0.3-0.4-0.9-0.5-1.6
			c0-0.8,0.1-1.3,0.3-1.5c1-0.9,1.9-0.9,2.7,0c0,0,0,0.2,0.1,0.5c0,0.3,0.1,0.5,0.2,0.7c1,1.1,3.3,1.8,6.8,2.2
			c3.5,0.4,7.4,0.2,11.9-0.5c5.3-0.9,9-2.3,11.2-4.2c1.7-1.6,1.9-3.2,0.6-4.6c-2.2-2.3-5-4.4-8.5-6.2c-1.8,0-3.1-0.5-4-1.5
			c-1.2-1.3-1.3-2.3-0.3-3.2c0.5-0.4,1.1-0.4,2-0.1c5.9,2.5,10.3,5.3,13.2,8.3c1.4,1.5,2,3.1,1.9,4.8c-0.1,1.7-0.9,3.1-2.2,4.3
			C175,539,168.4,541,159.4,541.5z M185.2,536.8c-0.2-0.2-0.3-0.8-0.4-1.9c0-0.5-0.1-1.3-0.1-2.4c-0.2-0.3-0.2-0.4-0.3-0.5
			c-0.7-0.8-0.5-1.6,0.5-2.6c0.8-0.8,1.6-0.9,2.2-0.2c0.3,0.4,0.4,2.6,0.3,6.7c0,0.4-0.1,0.7-0.4,1
			C186.5,537.5,185.9,537.4,185.2,536.8z M189.4,538c-0.6-0.6-0.5-1.7,0.3-3.3c0.3-1.4,0.6-2.3,1-2.6c0.2-0.2,0.4-0.3,0.8-0.2
			c0.4,0,0.7,0.1,0.9,0.4c0.5,0.5,0.3,1.6-0.3,3.2l-0.3,1.6c-0.2,0.4-0.4,0.8-0.6,1C190.6,538.6,189.9,538.6,189.4,538z"/>
		<path class="st0" d="M209.7,583.7c-3.3,1.2-6.9,2-10.9,2.5c-4.6,0.5-7.7,0.2-9.3-0.9c-0.9-0.6-1.1-1.4-0.4-2.4
			c0.6-0.9,1.4-1,2.4-0.3c1.2,0.4,2.5,0.6,3.9,0.6c7.3-0.2,13.4-1.9,18.2-4.9c1.1-0.7,1.9-1.3,2.3-1.9c1.3-1.9,0.7-3.8-1.8-5.5
			c-0.7-0.5-3-1.7-6.9-3.7c-0.5,0.1-1.4,0-2.6-0.3c-1.5-0.3-2.5-0.8-3.3-1.2c-1.4-1-1.8-2-1-3.1c0.6-0.8,1.9-0.8,4.2,0
			c4.6,1.7,8.4,3.6,11.5,5.7c1.8,1.2,2.9,2.6,3.5,4.2c0.7,1.8,0.5,3.6-0.7,5.3C217.1,580.1,214,582.1,209.7,583.7z M223.4,564.6
			c-4.2-1.9-7.7-3.8-10.5-5.7c-1.4-1-2.5-1.9-3.3-2.8c-0.5-0.5-0.5-1.2,0-1.9c0.3-0.4,0.7-0.6,1.3-0.8c0.6-0.1,1.1-0.1,1.5,0.2
			c0.6,0.4,1,1,1.3,1.9c0.6,0.6,1,0.8,1.3,1c1,0.7,4.2,2.4,9.8,5.3c0.8,0.5,0.9,1.3,0.2,2.2C224.6,564.7,224,565,223.4,564.6z"/>
		<path class="st0" d="M268.8,597.7c0,0-0.8-0.4-2.2-1.1c-0.7-0.4-1.8-0.9-3.2-1.6c-4.2-2.1-6.7-3.4-7.6-3.7c-1.7-0.7-3.6-1.4-5.8-2
			c-1.1,0.1-2.3-0.2-3.7-0.8c-0.5-0.2-0.9-0.5-1.1-1c-0.3-0.5-0.3-1-0.1-1.5c0.5-1.1,4-0.2,10.6,2.6c2.9,1.2,6,2.7,9.2,4.4
			c0.9,0.5,1.5,0.8,1.6,0.8c0.1,0,0.3,0.1,0.6,0.2c0.2,0.1,0.4,0.1,0.6,0.2c0.6,0.3,1.2,0.7,1.7,1.3c0.6,0.7,0.8,1.4,0.6,1.9
			C269.7,597.8,269.3,598,268.8,597.7z"/>
		<path class="st0" d="M317.8,617.1c-4.1,3.1-7.7,5.4-10.7,6.8c-3.6,1.7-7.6,2.8-12,3.4c-0.5,0.5-1.2,0.7-2,0.8
			c-1.3,0-2.1,0-2.6-0.1c-1.7-0.4-2.4-1.2-2.1-2.4c0.2-1,0.7-1.5,1.6-1.5c5.4-0.2,10-0.9,13.9-2.4c3.4-1.3,7.5-3.8,12.3-7.4
			c0.5-0.4,0.9-0.5,1.4-0.5c1.1,0.2,1.5,1,1.2,2.2C318.5,616.4,318.2,616.8,317.8,617.1z M304.1,607.9c-0.4-0.1-0.9-0.5-1.4-1.5
			c-0.4-0.5-1.4-1.6-3-3.1c-1.1-1-1.5-2-1.3-3.1c0.2-1.1,1-1.5,2.5-1.2c1.1,0.2,2.7,2.1,5,5.7c0.4,0.6,0.6,1.2,0.5,1.7
			C306,607.7,305.3,608.2,304.1,607.9z"/>
		<path class="st0" d="M370.6,627.1c0.3,0.7,0.4,1.1,0.4,1.3c0,1.1-0.5,1.7-1.5,1.7c-1.2-0.1-2.3-0.2-3.4-0.1
			c-1.1,0-3.2,0.2-6.2,0.5c-3.3,0.3-5.1,0.5-5.5,0.7c-1.1,0.5-1.8,0.7-2.1,0.7c-0.7,0-1.2-0.1-1.6-0.5c-0.4-0.4-0.6-0.8-0.6-1.2
			c0-0.9,0.6-1.6,1.8-1.8c4.3-1.1,9.3-1.7,15-1.8c1.5-1.5,3.2-3.9,4.8-7.3c1.8-3.6,2.7-6.3,2.7-8.3c0-2.4-1.8-3.5-5.3-3.4
			c-4.3,0.1-8.2,0.6-11.5,1.6c-1.2,0.6-2.2,0.9-3.1,0.9c-1.9,0-2.8-0.5-2.9-1.7c0-1.1,0.5-1.8,1.6-2c6.8-1.4,12-2.1,15.6-2.2
			c5.6-0.1,8.5,2.2,8.6,6.9C377.6,614.4,375.2,619.7,370.6,627.1z"/>
		<path class="st0" d="M425.8,612.1c-0.5,1-1.3,1.6-2.2,1.8c-1.6,0.4-2.9,0-3.9-1.1c-0.4-0.3-0.7-0.6-1-0.9
			c-0.3-0.2-0.5-0.7-0.7-1.4c-0.5-1.9,0.3-3.3,2.4-4c0.2-0.3,0.6-0.5,1-0.6c0.6-0.1,1.4,0,2.4,0.5c1.3,0.7,2.1,1.6,2.4,2.7
			C426.5,610.1,426.3,611.1,425.8,612.1z"/>
		<path class="st0" d="M528.5,549.5c0,0-0.7,0.5-2,1.4c-0.7,0.5-1.7,1.2-2.9,2.1c-3.9,2.7-6.2,4.3-6.9,4.9c-1.4,1.1-2.9,2.5-4.5,4.1
			c-0.4,1-1.2,1.9-2.5,2.9c-0.4,0.3-0.9,0.5-1.5,0.5c-0.6,0-1-0.2-1.4-0.6c-0.7-0.9,1.7-3.6,7.3-8.1c2.5-2,5.3-4,8.2-6
			c0.9-0.6,1.4-0.9,1.5-1c0.1-0.1,0.2-0.2,0.5-0.4c0.2-0.2,0.3-0.3,0.4-0.4c0.5-0.4,1.2-0.7,1.9-0.9c0.9-0.2,1.6-0.1,2,0.4
			C529,548.8,529,549.2,528.5,549.5z"/>
		<path class="st0" d="M567.9,519.7c0.1,0.5,0,0.8-0.2,1.1c-0.3,0.3-0.6,0.5-1.3,0.7c-0.5,0.2-1.1,0.5-1.6,0.6
			c-1.4,0.7-3.7,1.7-6.8,2.9c2.9,2.5,7.4,6.6,13.4,12.5c1.4,1.5,1.9,2.6,1.1,3.5c-0.8,0.9-1.6,1-2.5,0.2c-0.2-0.3-0.3-0.6-0.6-1.1
			c-1.2-1.2-4.2-4.2-9.2-8.7c-5-4.5-9.3-8.3-13-11.4c-0.7-0.6-2-1.6-4-2.9l-1-0.5c-0.3-0.3-0.5-0.6-0.6-1.2c0-0.4,0.1-0.8,0.4-1.2
			c0.6-0.7,1.4-0.8,2.3-0.4c0.8,0.4,2.7,1.8,5.5,4.2c1.5,1.2,3.1,2.7,4.8,4.3c2-0.5,5.2-1.8,9.4-3.9c1.1-0.5,2.1-0.4,2.9,0.2
			C567.5,518.9,567.8,519.3,567.9,519.7z"/>
	</g>
	<g>
		<path class="st1" d="M94.6,240.4l5.1-11.9c0.6-1.5,1.5-3,2.4-4.4c1-1.4,2.1-2.5,3.4-3.4c1.3-0.9,2.8-1.4,4.4-1.6
			c1.6-0.2,3.5,0.1,5.5,1c2.1,0.9,3.7,2.3,4.7,4.3c1,2,1.3,4.1,0.9,6.5l0.1,0c1.4-2.5,3.3-4.2,5.8-5.1c2.4-1,5.1-0.8,8.1,0.4
			c1.7,0.7,3,1.7,4.1,3c1.1,1.3,1.8,2.8,2.2,4.5c0.4,1.7,0.5,3.6,0.2,5.6c-0.3,2.1-0.9,4.2-1.9,6.5l-5.1,11.8L94.6,240.4z
			 M113.8,243.8l3.5-8.2c0.4-1,0.7-2,0.9-3.1c0.2-1.1,0.2-2.2,0-3.2c-0.2-1.1-0.6-2-1.3-2.9c-0.7-0.9-1.7-1.6-3-2.2
			c-1.3-0.5-2.5-0.8-3.6-0.6c-1.1,0.1-2.1,0.5-3.1,1.1c-0.9,0.6-1.8,1.5-2.5,2.5c-0.7,1.1-1.4,2.2-2,3.6l-3,7L113.8,243.8z
			 M132.7,252l3.2-7.5c0.6-1.5,1.1-2.9,1.4-4.4c0.3-1.5,0.3-2.8,0.2-4.1c-0.2-1.3-0.7-2.4-1.4-3.4c-0.7-1-1.8-1.8-3.2-2.4
			c-2.6-1.1-5-1.1-7,0.1c-2.1,1.2-3.8,3.5-5.2,6.7l-3.6,8.3L132.7,252z"/>
		<path class="st1" d="M156.8,205.4l11.6-16.6l3.2,2.2l-14.1,20.2l-35.6-24.9l2.5-3.6L156.8,205.4z"/>
		<path class="st1" d="M184,176.7l-3.5,3.3l-15.9-44.6l3.1-2.9l43.2,19l-3.6,3.3l-11.3-5.1l-16.4,15.3L184,176.7z M178.1,161l14-13
			l-22.7-10.3L178.1,161z"/>
		<path class="st1" d="M250.1,120.2l0.1-0.1l-18-32.3l3.9-2.1l21.1,37.9l-4.8,2.7l-40.2-20.3L212,106l18.2,32.6l-3.9,2.1l-21.1-37.9
			l4.8-2.7L250.1,120.2z"/>
		<path class="st1" d="M312.9,98.6c-0.4,1.3-1,2.5-1.8,3.7c-0.8,1.2-1.7,2.4-2.8,3.4c-1.1,1.1-2.4,2-3.9,2.9c-1.5,0.8-3.2,1.5-5.1,2
			c-3.2,0.8-6.2,1.1-9.2,0.7c-3-0.4-5.7-1.3-8.2-2.7c-2.5-1.4-4.6-3.4-6.4-5.8c-1.8-2.4-3.1-5.2-4-8.4c-0.9-3.2-1.1-6.3-0.7-9.3
			c0.4-3,1.3-5.7,2.7-8.2c1.4-2.5,3.3-4.6,5.7-6.4c2.4-1.8,5.1-3.1,8.2-4c1.5-0.4,3.1-0.7,4.7-0.7c1.6-0.1,3.1,0,4.5,0.2
			c1.5,0.2,2.8,0.6,4.1,1.1c1.3,0.5,2.4,1.2,3.4,2.1l-2.9,3.6c-0.6-0.6-1.4-1.1-2.3-1.5c-0.9-0.5-1.9-0.8-3.1-1.1
			c-1.1-0.2-2.3-0.4-3.6-0.4c-1.2,0-2.5,0.2-3.9,0.5c-2.7,0.7-5,1.9-6.9,3.4c-1.9,1.6-3.4,3.4-4.4,5.4c-1.1,2.1-1.7,4.3-1.9,6.7
			c-0.2,2.4,0,4.8,0.7,7.3c0.7,2.4,1.7,4.7,3.1,6.6c1.4,2,3.1,3.6,5,4.9c1.9,1.3,4.1,2.1,6.5,2.5c2.4,0.4,5,0.3,7.7-0.5
			c2.4-0.6,4.6-1.7,6.5-3.3c1.9-1.6,3.3-3.6,4.2-6.2L312.9,98.6z"/>
		<path class="st1" d="M376.4,80.6c0.1,3.3-0.5,6.4-1.6,9.2c-1.1,2.8-2.6,5.2-4.6,7.3c-2,2.1-4.4,3.7-7.1,4.9
			c-2.7,1.2-5.7,1.8-9,1.9c-3.2,0.1-6.2-0.5-9-1.6c-2.8-1.1-5.2-2.6-7.3-4.6c-2.1-2-3.7-4.4-4.9-7.1c-1.2-2.8-1.8-5.8-1.9-9.1
			c-0.1-3.3,0.5-6.4,1.6-9.2c1.1-2.8,2.6-5.2,4.6-7.3c2-2.1,4.4-3.7,7.1-4.9c2.7-1.2,5.7-1.8,9-1.9c3.2-0.1,6.2,0.5,9,1.6
			c2.8,1.1,5.2,2.6,7.3,4.6c2.1,2,3.7,4.4,4.9,7.1C375.7,74.3,376.3,77.3,376.4,80.6z M371.7,80.7c0-2.5-0.5-4.9-1.3-7.2
			c-0.9-2.3-2.1-4.3-3.7-6c-1.6-1.7-3.5-3.1-5.7-4c-2.2-1-4.8-1.5-7.5-1.4c-2.8,0-5.3,0.6-7.5,1.7c-2.2,1.1-4.1,2.5-5.6,4.2
			c-1.5,1.8-2.7,3.8-3.5,6.1c-0.8,2.3-1.2,4.7-1.1,7.2c0,2.5,0.5,4.9,1.3,7.2c0.9,2.3,2.1,4.3,3.7,5.9c1.6,1.7,3.5,3,5.7,4
			c2.2,1,4.8,1.5,7.5,1.4c2.8,0,5.3-0.6,7.5-1.7c2.2-1.1,4.1-2.5,5.6-4.2c1.5-1.7,2.7-3.8,3.5-6.1C371.4,85.7,371.8,83.2,371.7,80.7
			z"/>
		<path class="st1" d="M430.2,114.5l-4.1-1.5l15.1-40.7l12,4.4c2,0.7,3.8,1.6,5.3,2.6c1.6,1,2.8,2.2,3.7,3.5
			c0.9,1.3,1.5,2.8,1.7,4.4c0.2,1.6-0.1,3.5-0.8,5.4c-0.6,1.5-1.3,2.8-2.3,3.8c-1,1-2.1,1.8-3.4,2.4c-1.3,0.6-2.6,0.9-4.1,0.9
			c-1.5,0.1-3-0.1-4.5-0.5l4.7,23.8l-5.1-1.9L444.2,98l-6.9-2.6L430.2,114.5z M438.6,91.9l7.2,2.7c3.3,1.2,6.1,1.6,8.4,1.1
			c2.2-0.5,3.8-2,4.7-4.4c0.5-1.3,0.7-2.6,0.5-3.7c-0.2-1.1-0.6-2.1-1.2-3c-0.7-0.9-1.6-1.7-2.7-2.5c-1.2-0.7-2.5-1.4-4-2l-7.4-2.7
			L438.6,91.9z"/>
		<path class="st1" d="M519.1,138.1c-1.9,2.7-4.1,4.9-6.6,6.6c-2.5,1.7-5.2,2.7-8,3.3c-2.8,0.5-5.7,0.5-8.6-0.1
			c-2.9-0.6-5.7-1.8-8.4-3.6c-2.7-1.8-4.8-4-6.5-6.5c-1.6-2.5-2.7-5.2-3.3-8c-0.5-2.8-0.5-5.7,0.1-8.6c0.6-2.9,1.9-5.8,3.7-8.5
			c1.9-2.7,4.1-4.9,6.6-6.6c2.5-1.7,5.2-2.7,8-3.3c2.8-0.5,5.7-0.5,8.6,0.1c2.9,0.6,5.7,1.8,8.4,3.6c2.7,1.8,4.8,4,6.5,6.5
			c1.6,2.5,2.7,5.2,3.3,8c0.5,2.8,0.5,5.7-0.1,8.6C522.2,132.6,520.9,135.4,519.1,138.1z M515.2,135.5c1.4-2.1,2.4-4.3,3.1-6.7
			c0.6-2.4,0.8-4.7,0.5-7c-0.3-2.3-1.1-4.5-2.4-6.6c-1.3-2.1-3-3.9-5.3-5.5c-2.3-1.6-4.7-2.6-7.1-3c-2.4-0.4-4.8-0.3-7,0.2
			c-2.3,0.6-4.4,1.6-6.3,3c-2,1.4-3.7,3.2-5.1,5.3c-1.4,2.1-2.4,4.3-3.1,6.7c-0.6,2.4-0.8,4.7-0.4,7c0.3,2.3,1.1,4.5,2.4,6.6
			c1.3,2.1,3,3.9,5.3,5.5c2.3,1.6,4.7,2.6,7.1,3c2.4,0.4,4.7,0.3,7-0.2c2.2-0.5,4.4-1.5,6.3-3C512.1,139.4,513.8,137.6,515.2,135.5z
			"/>
		<path class="st1" d="M530.5,180.3l-3-3.2l29.1-26.7l-9.8-10.7l2.9-2.7l22.7,24.6l-2.9,2.7l-9.8-10.7L530.5,180.3z"/>
		<path class="st1" d="M590.8,231.3c-2.9,1.6-5.8,2.6-8.8,3c-3,0.4-5.9,0.2-8.6-0.6c-2.8-0.8-5.3-2.1-7.7-3.9
			c-2.4-1.8-4.3-4.2-5.9-7c-1.6-2.8-2.6-5.7-2.9-8.7c-0.4-3-0.2-5.8,0.6-8.6c0.8-2.8,2.1-5.3,3.9-7.7c1.9-2.4,4.2-4.4,7.1-6
			c2.9-1.6,5.8-2.6,8.8-3c3-0.4,5.9-0.2,8.6,0.6c2.8,0.8,5.3,2.1,7.7,3.9c2.4,1.8,4.3,4.2,5.9,7c1.6,2.8,2.6,5.7,2.9,8.7
			c0.4,3,0.2,5.8-0.6,8.6c-0.8,2.8-2.1,5.3-3.9,7.7C596,227.7,593.7,229.7,590.8,231.3z M588.5,227.3c2.2-1.2,4.1-2.8,5.7-4.6
			c1.6-1.8,2.8-3.9,3.5-6.1c0.7-2.2,1-4.5,0.8-7c-0.2-2.4-1-4.9-2.4-7.3c-1.4-2.4-3-4.3-5-5.8c-2-1.4-4.1-2.4-6.4-2.9
			c-2.3-0.5-4.6-0.5-7-0.1c-2.4,0.4-4.7,1.2-6.9,2.5c-2.2,1.2-4.1,2.8-5.7,4.6c-1.6,1.8-2.7,3.9-3.5,6c-0.7,2.2-1,4.5-0.8,7
			c0.2,2.4,1,4.9,2.4,7.3c1.4,2.4,3,4.3,5,5.8c2,1.4,4.1,2.4,6.4,2.9c2.3,0.5,4.6,0.6,7,0.1C584,229.4,586.3,228.5,588.5,227.3z"/>
	</g>
	<path class="st0" d="M420.4,383.5c-0.4,2.2-0.1,4.5,0.7,6.7c1.1,3.3,8.2,2,7.5-1.4c-0.4-1.8-0.2-3.5-0.4-5.3
		c-0.1-1.4-2-2.6-3.9-2.6C422,380.8,420.7,382.1,420.4,383.5L420.4,383.5z"/>
	<g>
		<g>
			<g id="XMLID_48_">
				<g>
					<path class="st0" d="M363.1,418.8c2-0.1,4-0.1,6.2,0c-1,1.2-2,2.3-3,3.4C365.2,421.2,364.1,420,363.1,418.8z"/>
					<path class="st0" d="M369.3,418.8c-2.2-0.1-4.2-0.1-6.2,0c1,1.2,2,2.3,3.2,3.4C367.4,421.1,368.4,420,369.3,418.8z
						 M372.7,417.3c0.2,0.5,0.2,1.2-0.2,1.6l-0.2,0.3c-1.4,2-3.1,3.9-4.9,5.5c-0.3,0.3-0.6,0.4-1,0.4c0,0,0,0,0,0
						c-0.4,0-0.7-0.1-1-0.4c-1.9-1.6-3.7-3.5-5.1-5.6l-0.2-0.2c-0.4-0.4-0.5-1-0.2-1.6c0.2-0.5,0.7-0.9,1.3-0.9
						c3.2-0.3,6.7-0.3,10.3,0C371.9,416.4,372.4,416.8,372.7,417.3z"/>
				</g>
				<g>
				</g>
			</g>
		</g>
		<g>
			<path class="st0" d="M334.9,446.1c3.9,4.8,10.1,7.3,16.2,7.8c3.5,0.3,7-0.2,10.3-1.5c3.4-1.3,6.4-3,10-1.7
				c2.5,0.8,3.5-3.1,1.1-3.9c-6.7-2.2-12.3,2.9-18.9,3.1c-5.9,0.2-12-2-15.8-6.6C336.1,441.3,333.2,444.2,334.9,446.1L334.9,446.1z"
				/>
		</g>
		<g>
			<path class="st0" d="M399.8,443.3c-3.8,4.6-9.9,6.8-15.8,6.6c-6.6-0.2-12.2-5.3-18.9-3.1c-2.4,0.8-1.4,4.7,1.1,3.9
				c3.5-1.2,6.4,0.4,9.7,1.6c3.3,1.3,7,1.9,10.6,1.6c6.1-0.5,12.3-3,16.2-7.8C404.3,444.2,401.5,441.3,399.8,443.3L399.8,443.3z"/>
		</g>
		<g>
			<path class="st0" d="M395.9,451.4c2.5-1.8,5.7-2.6,7.6-5c0.5-0.6,0.9-1.3,0.9-2.1c0-0.9-0.5-1.8-1.3-2.2
				c-0.5-0.3-1.1-0.5-1.7-0.5c-0.3,0-0.6,0-0.8,0.1c-0.2,0.1-0.8,0.3-1,0.6c0,0.1-0.2,0.2,0.1,0c0.3-0.2,0,0-0.1,0
				c-0.2,0.2-0.5,0.3-0.7,0.5c-0.3,0.2-0.6,0.5-0.8,0.7c-0.5,0.5-0.9,1-1.4,1.6c-0.5,0.6-0.9,1.1-1.5,1.7c-0.3,0.3-0.6,0.5-0.8,0.8
				c0.5-0.4,0,0-0.1,0.1c-0.2,0.1-0.4,0.2-0.6,0.3c-0.9,0.5-1.3,1.9-0.7,2.8C393.8,451.6,394.9,451.9,395.9,451.4
				c1.2-0.6,2.2-1.5,3.1-2.6c0.8-0.9,1.5-1.8,2.3-2.7c0.1-0.1,0.2-0.2,0.3-0.3c0.1,0,0.5-0.4,0.2-0.2c-0.3,0.2,0.1-0.1,0.2-0.1
				c0.2-0.2,0.4-0.3,0.6-0.5c0.3-0.4-1,0.5-1.2,0.5c0,0,0.2,0,0.2,0c0,0.1-0.5-0.2-0.2,0c0,0-0.4-0.2-0.2-0.1
				c-0.1-0.1-0.2-0.2-0.3-0.3c-0.2-0.1-0.3-0.4-0.4-0.6c0-0.1-0.1-0.2-0.1-0.4c0.2-0.6,0.3-0.8,0.1-0.6c-0.1,0.2,0.2-0.3,0.1-0.1
				c-0.1,0.1-0.1,0.1-0.2,0.2c-0.2,0.2-0.4,0.4-0.6,0.6c-0.1,0.1-0.2,0.2-0.3,0.3c-0.1,0.1-0.3,0.2,0.2-0.1c-0.1,0-0.1,0.1-0.2,0.1
				c-0.5,0.4-1.1,0.6-1.7,0.9c-1.4,0.7-2.8,1.4-4.1,2.3c-0.4,0.3-0.8,0.7-0.9,1.2c-0.1,0.5-0.1,1.1,0.2,1.5
				C393.7,451.5,395,452.1,395.9,451.4L395.9,451.4z"/>
		</g>
		<g>
			<path class="st0" d="M341.8,446.9c-1.2-0.8-2.4-1.4-3.7-2c-0.6-0.3-1.2-0.6-1.8-0.9c-0.2-0.1-0.4-0.3-0.7-0.4
				c-0.2-0.1,0.4,0.3,0.2,0.1c0,0-0.1-0.1-0.2-0.1c-0.1-0.1-0.2-0.2-0.3-0.3c-0.2-0.2-0.4-0.4-0.6-0.6c-0.1-0.2,0.1,0.2,0.2,0.3
				c0.2,0.4,0.1,1-0.2,1.4c-0.1,0.2-0.3,0.3-0.5,0.4c-0.2,0.1-0.2,0.1-0.1,0c0.2,0,0.1,0-0.3,0c0,0,0.2,0,0.2,0
				c-0.2-0.1-0.4-0.2-0.6-0.3c-0.6-0.4-0.8-0.4-0.6-0.2c0.1,0.1,0.2,0.2,0.3,0.3c0.2,0.1,0.4,0.3,0.5,0.4c0,0,0.1,0.1,0.1,0.1
				c0.3,0.2-0.4-0.3,0,0c0.9,0.8,1.7,1.7,2.5,2.6c1,1.1,2.1,2.1,3.4,2.8c0.9,0.5,2.2,0.3,2.8-0.7C343,448.8,342.8,447.4,341.8,446.9
				c-0.3-0.1-0.6-0.3-0.9-0.5c-0.1-0.1-0.5-0.4-0.3-0.2c0.3,0.2,0,0,0,0c-0.1-0.1-0.2-0.1-0.3-0.2c-0.5-0.5-1-1-1.4-1.5
				c-1-1.1-2-2.2-3.3-3.1c-0.1-0.1-0.3-0.2,0,0c0.3,0.2,0.1,0.1,0.1,0c-0.1-0.2-0.3-0.3-0.5-0.4c-0.6-0.4-1.5-0.4-2.2-0.2
				c-1.6,0.5-2.5,2.3-1.7,3.8c0.4,0.7,1,1.3,1.6,1.8c0.6,0.5,1.3,1,2,1.3c1.6,0.8,3.3,1.5,4.8,2.5c0.9,0.6,2.3,0.2,2.8-0.7
				C343,448.6,342.7,447.5,341.8,446.9L341.8,446.9z"/>
		</g>
		<g>
			<path class="st0" d="M393.1,367.6c0-0.8-0.2,0.5,0-0.2c0.3-0.8-0.3,0.5,0.1-0.3c0.2-0.4,0.4-0.9,0.6-1.3c0.3-0.5,0.6-1,0.9-1.5
				c0.3-0.5-0.1,0.1,0.1-0.2c0.2-0.2,0.4-0.4,0.6-0.6c0.2-0.2,0.4-0.4,0.1-0.1c0.2-0.2,0.4-0.3,0.7-0.4c0.4-0.3,0.9-0.5,1.3-0.7
				c0.3-0.2-0.4,0.2,0.1,0c0.3-0.1,0.5-0.2,0.8-0.3c0.5-0.2,1-0.3,1.5-0.5c-1-1.8-2.1-3.5-3.1-5.3c-2.7,3.2-5.5,6.4-8.2,9.6
				c-0.8,0.9-1.1,1.9-0.8,3.1c0.3,1,1.2,2,2.2,2.2c3.5,0.6,6.8-0.1,10.1-1.5c2.5-1.1,5.2-2.6,7.3-4.4c1.1-1,2.1-2.4,2.4-3.9
				c0.5-2.6-1.4-4.8-4-4.8c-3.1,0-6,1.8-8.5,3.4c1.6,1.2,3.1,2.4,4.7,3.6c0,0.1-0.1,0.2-0.1,0.3c0.2-0.2,0.2-0.3,0-0.1
				c-0.2,0.5,0.1-0.4,0.2-0.2c0,0-0.5,0.4-0.1,0.1c0.6-0.4-0.6,0.2,0.1,0c1.6-0.5,2.7-2.2,2.2-3.9c-0.5-1.6-2.2-2.7-3.9-2.2
				c-2.2,0.7-3.7,2.2-4.5,4.3c-0.5,1.2,0.2,2.6,1.1,3.3c1,0.7,2.4,0.9,3.5,0.2c1.1-0.7,2.2-1.4,3.3-1.9c0.1-0.1,0.3-0.1,0.4-0.2
				c-0.3,0.1-0.3,0.1,0,0c0.3-0.1,0.5-0.2,0.8-0.3c0.3-0.1,0.5-0.1,0.8-0.2c-0.3,0-0.4,0-0.1,0c-0.7-0.1-1.3-0.4-1.8-1
				c-0.1-0.5-0.3-1.1-0.4-1.6c0.1-0.5,0.1-0.5,0-0.2c0.2-0.4,0.2-0.4,0-0.1c-0.2,0.3-0.2,0.3,0.1,0c-0.1,0.1-0.2,0.3-0.3,0.4
				c-0.2,0.2-0.4,0.3-0.6,0.5c0.6-0.5-0.3,0.2-0.4,0.3c-1.2,0.8-2.4,1.5-3.6,2.2c-0.3,0.2-0.6,0.3-0.9,0.5c-0.1,0-1.2,0.5-0.6,0.3
				c-0.7,0.3-1.3,0.5-2,0.7c-0.4,0.1-0.8,0.2-1.2,0.3c-0.7,0.1,0.4,0-0.4,0c-0.4,0-0.8,0-1.2,0c-0.2,0-0.4,0-0.6,0
				c0.3,0.1,0.3,0.1,0,0c0.5,1.8,0.9,3.5,1.4,5.3c2.7-3.2,5.5-6.4,8.2-9.6c0.9-1,1.3-2.6,0.5-3.8c-0.7-1.1-2.2-1.9-3.6-1.5
				c-2.7,0.9-5.4,1.8-7.4,3.9c-1,1-1.8,2.3-2.5,3.6c-0.8,1.5-1.5,3-1.5,4.7c0,1.7,1.4,3.2,3.2,3.2
				C391.7,370.7,393.2,369.4,393.1,367.6L393.1,367.6z"/>
		</g>
		<g>
			<path class="st0" d="M343.1,367.2c-0.1-1.7-0.8-3.2-1.6-4.7c-0.7-1.2-1.5-2.5-2.6-3.5c-2.1-1.9-4.8-2.8-7.6-3.6
				c-3.1-0.8-5.2,3-3.1,5.3c2.9,3,5.8,6.1,8.7,9.1c0.5-1.8,0.9-3.5,1.4-5.3c-0.8,0.2-2.5,0.2-3.3,0c-0.7-0.1-1.4-0.3-2.1-0.6
				c-0.4-0.1-0.8-0.3-1.2-0.4c0.5,0.2-0.4-0.2-0.5-0.3c-1.3-0.6-2.5-1.3-3.7-2c-0.3-0.2-0.5-0.3-0.8-0.5c-0.3-0.2-0.3-0.2,0,0
				c-0.1-0.1-0.2-0.2-0.3-0.3c-0.2-0.2-0.6-0.8-0.2-0.2c-0.1-0.1-0.2-0.3-0.2-0.4c0.2,0.4,0.3,0.8,0.2,1.3c-0.3,0.5-0.5,0.9-0.8,1.4
				c-0.4,0.4-0.9,0.5-1.4,0.6c0.1,0,0.2,0,0.3,0c0.2,0,0.2,0-0.1,0c0.1,0,0.3,0,0.4,0.1c0.6,0.1,1.2,0.3,1.8,0.5
				c0.9,0.3-0.5-0.3,0.3,0.1c0.3,0.1,0.5,0.3,0.8,0.4c0.6,0.3,1.2,0.7,1.8,1c1.2,0.7,2.9,0.5,3.8-0.5c1-1.1,1.1-2.5,0.5-3.8
				c-0.8-1.7-2.5-3-4.3-3.4c-1.6-0.4-3.5,0.5-3.9,2.2c-0.4,1.6,0.5,3.5,2.2,3.9c0.1,0,0.6,0.3,0.3,0.1c-0.4-0.3,0.4,0.6-0.2-0.1
				c0.1,0.1,0.2,0.2,0.3,0.4c-0.5-0.5-0.1,0,0,0.2c1.4-1.4,2.9-2.9,4.3-4.3c-2.6-1.5-5.5-3-8.6-3c-2.6,0-4.6,2.2-4,4.8
				c0.3,1.4,1.3,2.8,2.4,3.7c2.3,1.9,5.2,3.2,8,4.3c3.1,1.2,6.4,1.6,9.7,0.9c2.4-0.5,3-3.6,1.4-5.3c-2.9-3-5.8-6.1-8.7-9.1
				c-1,1.8-2.1,3.5-3.1,5.3c1,0.3,1.9,0.5,2.9,0.8c0.2,0.1,0.7,0.3,0.2,0.1c0.2,0.1,0.5,0.2,0.7,0.4c0.2,0.1,0.4,0.2,0.6,0.3
				c0.1,0.1,0.2,0.1,0.3,0.2c-0.3-0.2-0.3-0.2-0.1-0.1c0.2,0.2,0.3,0.3,0.5,0.5c0,0,0.6,0.7,0.2,0.2c0.3,0.4,0.6,0.9,0.9,1.3
				c0.3,0.4,0.5,0.9,0.8,1.4c0.1,0.1,0.3,0.8,0.1,0.3c0.1,0.2,0.1,0.9,0.1,0.2c0.1,1.7,1.4,3.2,3.2,3.2
				C341.6,370.3,343.2,369,343.1,367.2L343.1,367.2z"/>
		</g>
		<g>
			<g id="XMLID_47_">
				<g>
					<path class="st0" d="M365.7,392.9c-3.2-9.5-3.2-20,0-29.5c3,9.8,3.3,20.1,0.8,30l-0.3,1.1L365.7,392.9z"/>
					<path class="st0" d="M365.6,395.8l-0.9-2.5c-3.3-10-3.2-21,0.2-30.9c0.1-0.3,0.4-0.5,0.7-0.5c0.3,0,0.6,0.2,0.7,0.5
						c3.3,10.1,3.7,21,1.1,31.3l-0.5,2.1c-0.1,0.3-0.3,0.5-0.6,0.5c0,0,0,0,0,0C366,396.2,365.7,396,365.6,395.8z M366.5,393.4
						c2.5-9.9,2.2-20.3-0.8-30c-3.2,9.5-3.2,20,0,29.5l0.5,1.6L366.5,393.4z"/>
				</g>
				<g>
				</g>
			</g>
		</g>
		<g>
			<path class="st0" d="M406.6,396.2c1.8-4.1,6.3-6.8,10-8.9c4-2.3,8.3-4.2,12.8-4.9c12.2-1.9,27.7-2.8,34.9-14.7
				c1.8-3-2.9-5.7-4.6-2.7c-7.1,11.7-23.4,9.7-34.7,12.8c-4.7,1.3-9.2,3.6-13.3,6.2c-3.7,2.4-7.8,5.4-9.6,9.5
				C400.6,396.6,405.2,399.4,406.6,396.2L406.6,396.2z"/>
		</g>
		<g>
			<path class="st0" d="M331.8,392.8c-1.9-3.9-6-6.8-9.6-9c-4.1-2.5-8.6-4.7-13.3-5.9c-6.1-1.6-12.6-1.6-18.7-3
				c-6-1.3-12.7-3.7-16.1-9.1c-1.8-2.8-6.3-0.2-4.5,2.6c7.3,11.5,22.8,12.2,34.8,13.9c4.4,0.6,8.6,2.4,12.6,4.5
				c3.7,2,8.4,4.6,10.3,8.6C328.7,398.4,333.2,395.8,331.8,392.8L331.8,392.8z"/>
		</g>
		<path class="st0" d="M307.6,384.2c-0.1,1.7-0.1,3.3-0.4,5c-0.5,3.2,6.1,4.5,7.2,1.3c0.7-2.1,1-4.2,0.6-6.3
			c-0.2-1.3-1.5-2.5-3.7-2.5C309.5,381.7,307.4,382.9,307.6,384.2L307.6,384.2z"/>
	</g>
	<g>
		<path class="st0" d="M459.8,422.3c-15.4,23.4-37.1,42.4-64.6,49.8c-13.3,3.6-27.6,4.8-41.3,3c-14.3-1.8-28.2-7.2-40.6-14.4
			c-14.1-8.2-26.9-19.3-35.5-33.3c-1.8-2.9-6.5-0.2-4.6,2.7c15.8,25.6,45,43.8,74.3,49.4c28.1,5.4,58.9-1.3,82.3-17.7
			c13.9-9.8,25.4-22.6,34.7-36.8C466.3,422.2,461.7,419.5,459.8,422.3L459.8,422.3z"/>
	</g>
	<g>
		<path class="st0" d="M259.9,193.3c-10,5.9-19.8,12.2-28.4,20c-8.3,7.6-15.2,16.7-20.8,26.4c-12.3,21.4-14.3,46.1-16.8,70.1
			c-1.8,17.1-6.5,33.7-9.9,50.5c-1.9,9.3-3.7,18.7-4.4,28.2c-0.8,10.5,0.5,21.4,2.2,31.8c4.1,25.4,16.9,47.5,29.2,69.7
			c1.7,3,6.3,0.3,4.6-2.7c-10.8-19.3-22.2-38.8-27.1-60.6c-2.4-10.8-3.6-22.1-3.7-33.2c0-8.3,1.6-16.7,3.1-24.8
			c1.8-9.6,3.9-19.2,6.1-28.8c1.6-6.9,3.3-13.9,4.3-20.9c3.2-22.7,3.5-45.9,12.6-67.3c5-11.8,12.6-22.9,21.7-31.9
			c8.9-8.8,19.4-15.7,30.1-21.9C265.6,196.2,262.9,191.6,259.9,193.3L259.9,193.3z"/>
	</g>
	<g>
		<path class="st0" d="M506.5,263.1c6.6,14.4,8.8,29.9,12,45.3c3.2,15.5,8.3,30.4,11.8,45.9c3.4,15.2,4.8,30.3,2.7,45.8
			c-1.9,14.2-5.6,28.1-10.4,41.6c-6,16.9-13.7,33.1-22,49c-1.6,3.1,3,5.8,4.6,2.7c14.5-27.5,27.3-56.6,32.3-87.4
			c1.2-7.3,2-14.7,2-22.1c-0.1-8-1.1-16-2.5-23.8c-3-16.1-8.3-31.6-12.1-47.6c-4.1-17.6-6.1-35.4-13.7-52
			C509.7,257.3,505.1,260,506.5,263.1L506.5,263.1z"/>
	</g>
	<g>
		<path class="st0" d="M294.9,182.1c34.2-11.9,71.8-12.7,106.5-2.6c9.8,2.9,19.3,6.6,28.4,11.2c3.1,1.5,5.8-3.1,2.7-4.6
			c-33.3-16.7-71.5-22.5-108.3-16.8c-10.4,1.6-20.7,4.2-30.7,7.7C290.3,178.1,291.7,183.2,294.9,182.1L294.9,182.1z"/>
	</g>
	<g>
		<path class="st0" d="M463.8,204.2c13.6,10.8,23.4,24.6,32.8,39c1.9,2.9,6.5,0.2,4.6-2.7c-9.6-14.8-19.7-29-33.6-40.1
			c-1.1-0.9-2.7-1.1-3.8,0C462.8,201.3,462.7,203.3,463.8,204.2L463.8,204.2z"/>
	</g>
	<g>
		<path class="st0" d="M222.9,280.5c-1.8,6.4-4.1,12.7-6,19.1c-1.9,6.5-2.8,13.2-3.4,19.9c-0.3,3.4,5,3.4,5.4,0
			c0.6-6.4,1.5-12.7,3.4-18.9c1.9-6.3,4.1-12.4,5.9-18.7C229,278.6,223.8,277.2,222.9,280.5L222.9,280.5z"/>
	</g>
	<g>
		<path class="st0" d="M218.5,367.9c1.1,19-3.8,38.1,1,56.9c0.8,3.3,6,1.9,5.2-1.4c-4.6-18.2,0.3-37-0.8-55.4
			C223.6,364.5,218.3,364.5,218.5,367.9L218.5,367.9z"/>
	</g>
	<g>
		<path class="st0" d="M221.3,426.9c3.9,1.7,8.1,2.4,12.4,2.7c4.1,0.2,8.3,0,12.3-1.2c3.3-1,1.9-6.1-1.4-5.2c-3.4,1-6.8,1.2-10.5,1
			c-1.8-0.1-3.5-0.3-5.2-0.6c-0.9-0.2-1.8-0.4-2.7-0.6c-0.4-0.1-0.9-0.3-1.3-0.4c-0.2-0.1-0.4-0.1-0.5-0.2c-0.1,0-0.6-0.3-0.3-0.1
			c-1.3-0.6-2.9-0.4-3.7,1C219.6,424.4,219.9,426.4,221.3,426.9L221.3,426.9z"/>
	</g>
	<g>
		<path class="st0" d="M247.7,424.9c0-0.5,0.1-1.1,0.1-1.6c0,0.2-0.1,0.5-0.1,0.7c0.2-1.6,0.6-3.1,1.3-4.6c-0.1,0.2-0.2,0.4-0.3,0.6
			c0.3-0.8,0.7-1.5,1.2-2.3c0.7-1.2,0.3-3-1-3.7c-1.3-0.7-2.9-0.3-3.7,1c-1.8,3-2.8,6.4-2.9,9.8c-0.1,1.4,1.3,2.7,2.7,2.7
			C246.6,427.5,247.7,426.4,247.7,424.9L247.7,424.9z"/>
	</g>
	<g>
		<path class="st0" d="M245.1,417.2c1.6,4.1,3.5,8.1,5.8,11.8c0.7,1.2,2.4,1.8,3.7,1c1.2-0.8,1.7-2.4,1-3.7c-1.1-1.8-2.1-3.5-3-5.4
			c-0.5-0.9-0.9-1.8-1.3-2.7c-0.1-0.3-0.2-0.5-0.3-0.8c-0.1-0.1-0.3-0.7-0.1-0.1c-0.2-0.5-0.4-1-0.6-1.5c-0.3-0.7-0.6-1.2-1.2-1.6
			c-0.6-0.3-1.4-0.5-2.1-0.3C245.7,414.3,244.6,415.8,245.1,417.2L245.1,417.2z"/>
	</g>
	<g>
		<path class="st0" d="M252.8,430.6c12.2,3.4,26.2,1.3,37.6-4c3.1-1.5,0.4-6.1-2.7-4.6c-10,4.6-22.7,6.4-33.5,3.4
			C250.9,424.5,249.5,429.7,252.8,430.6L252.8,430.6z"/>
	</g>
	<g>
		<path class="st0" d="M266.7,344.6c1.5,13.5,4.6,26.7,8.2,39.8c3.8,13.6,7.7,27.1,11.5,40.7c0.9,3.3,6.1,1.9,5.2-1.4
			c-3.7-13.3-7.5-26.5-11.3-39.8c-3.6-12.9-6.8-25.9-8.3-39.2C271.7,341.2,266.4,341.1,266.7,344.6L266.7,344.6z"/>
	</g>
	<g>
		<path class="st0" d="M475,338.6c-0.4,5.7-0.9,11.3-2.6,16.7c-1.8,5.7-4.5,11.1-6.7,16.7c-2.2,5.9-4,11.9-6.4,17.7
			c-2.8,6.7-5.9,13.2-8.8,19.8c-1.4,3.1,3.2,5.7,4.5,2.7c3-6.6,6-13.2,8.9-19.9c2.6-6.2,4.5-12.6,6.9-18.9c2.2-5.7,5-11.2,6.8-17.1
			c1.8-5.8,2.2-11.8,2.7-17.7C480.6,335.2,475.3,335.2,475,338.6L475,338.6z"/>
	</g>
	<g>
		<path class="st0" d="M450.7,414.1c6,5.6,13,9.8,20.8,12.5c1.3,0.5,2.9-0.5,3.2-1.8c0.4-1.4-0.5-2.8-1.8-3.2
			c-6.8-2.3-13.1-6.2-18.4-11.1c-1-1-2.7-1-3.7,0C449.7,411.4,449.6,413.1,450.7,414.1L450.7,414.1z"/>
	</g>
	<g>
		<path class="st0" d="M473.7,426.5c1.6-0.9,2.8-2.1,3.8-3.5c0.8-1.1,1.5-2.4,2.3-3.6c0.4-0.5,0.4-1.4,0.3-2
			c-0.2-0.6-0.6-1.3-1.2-1.6c-0.6-0.3-1.3-0.5-2-0.3c-0.7,0.2-1.2,0.6-1.6,1.2c-0.9,1.3-1.6,2.7-2.5,3.9c0.1-0.2,0.3-0.4,0.4-0.5
			c-0.4,0.6-0.9,1.1-1.5,1.5c0.2-0.1,0.4-0.3,0.5-0.4c-0.4,0.3-0.8,0.5-1.2,0.8c-1.2,0.7-1.7,2.4-0.9,3.6
			C470.9,426.7,472.4,427.2,473.7,426.5L473.7,426.5z"/>
	</g>
	<g>
		<path class="st0" d="M475.4,418.8c0.5,2.9,1.4,5.7,2.5,8.5c0.2,0.6,1,1.1,1.6,1.2c0.6,0.2,1.5,0.1,2-0.3c0.6-0.4,1.1-0.9,1.2-1.6
			c0-0.2,0.1-0.5,0.1-0.7c0-0.5-0.1-0.9-0.4-1.3c0-0.1-0.1-0.2-0.1-0.3c0.1,0.2,0.2,0.4,0.3,0.6c-1-2.4-1.7-5-2.2-7.6
			c-0.1-0.6-0.7-1.3-1.2-1.6c-0.6-0.3-1.4-0.5-2-0.3c-0.6,0.2-1.2,0.6-1.6,1.2C475.3,417.4,475.3,418.1,475.4,418.8L475.4,418.8z"/>
	</g>
	<g>
		<path class="st0" d="M479.5,428.8c7.9,1.8,15.9,1,23.3-2.4c1.3-0.6,1.6-2.5,0.9-3.6c-0.8-1.3-2.3-1.5-3.6-0.9
			c-6,2.7-12.8,3.3-19.2,1.8c-1.4-0.3-2.8,0.4-3.2,1.8C477.3,426.8,478.1,428.4,479.5,428.8L479.5,428.8z"/>
	</g>
	<g>
		<path class="st0" d="M503.8,425.3c11-23.9,9.7-50.5,7.5-76.1c-0.3-3.3-5.5-3.4-5.3,0c2.1,24.5,3.8,50.5-6.8,73.4
			C497.8,425.7,502.3,428.3,503.8,425.3L503.8,425.3z"/>
	</g>
	<g>
		<path class="st0" d="M213.4,491.8c13.1,1.6,26.6-1.6,37.5-8.9c2.9-1.9,0.2-6.6-2.7-4.6c-10.3,6.9-22.6,9.7-34.8,8.2
			c-1.5-0.2-2.7,1.4-2.7,2.7C210.7,490.7,211.9,491.6,213.4,491.8L213.4,491.8z"/>
	</g>
	<g>
		<path class="st0" d="M252.1,480.4c-0.2-2.1-0.1-4.2,0.1-6.3c0,0.2-0.1,0.5-0.1,0.7c0.1-1.1,0.4-2.1,0.6-3.2c0.3-1.4-0.4-3-1.9-3.3
			c-1.4-0.3-2.9,0.4-3.3,1.9c-0.8,3.3-1.2,6.8-0.8,10.1c0.1,0.7,0.3,1.4,0.8,1.9c0.5,0.5,1.2,0.8,1.9,0.8
			C250.8,483,252.3,481.9,252.1,480.4L252.1,480.4z"/>
	</g>
	<g>
		<path class="st0" d="M248.5,472.3c2.4,2.8,4.8,5.6,7.1,8.4c0.4,0.5,1.3,0.8,1.9,0.8c0.7,0,1.4-0.3,1.9-0.8c1-1.1,1-2.7,0-3.8
			c-2.4-2.8-4.8-5.6-7.1-8.4c-0.4-0.5-1.3-0.8-1.9-0.8c-0.7,0-1.4,0.3-1.9,0.8C247.4,469.7,247.5,471.2,248.5,472.3L248.5,472.3z"/>
	</g>
	<g>
		<path class="st0" d="M259.6,482c7.8-3.8,15.8-7.2,24-10.2c7.5-2.8,15.5-5.8,23.5-6.8c3.4-0.4,3.4-5.8,0-5.4c-8.6,1-16.9,4-24.9,7
			c-8.6,3.2-17,6.8-25.3,10.8C253.8,478.8,256.5,483.5,259.6,482L259.6,482z"/>
	</g>
	<g>
		<path class="st0" d="M413.5,472.3c2.3-0.1,4.5-0.2,6.8,0c0.6,0.1-0.5-0.1,0.1,0c0.2,0,0.4,0.1,0.5,0.1c0.3,0.1,0.6,0.1,0.9,0.2
			c0.3,0.1,0.5,0.2,0.8,0.3c0.1,0,0.3,0.1,0.4,0.2c0.3,0.1-0.6-0.3-0.1,0c3.5,1.6,7,2.8,10.8,3.6c1.4,0.3,2.9-0.4,3.3-1.9
			c0.4-1.3-0.4-3-1.9-3.3c-2.3-0.5-4.6-1-6.8-1.9c-0.2-0.1-0.4-0.1-0.6-0.2c-0.5-0.2,0.5,0.2,0,0c-0.3-0.1-0.6-0.3-0.8-0.4
			c-0.6-0.3-1.2-0.6-1.9-0.8c-3.6-1.5-7.6-1.4-11.4-1.2c-1.4,0.1-2.7,1.2-2.7,2.7C410.8,471,412,472.4,413.5,472.3L413.5,472.3z"/>
	</g>
	<g>
		<path class="st0" d="M435,476.6c2.1-0.6,4.2-1.5,6-2.7c2-1.4,3.5-3.1,4.7-5.3c0.7-1.2,0.3-3-1-3.7c-1.3-0.7-3-0.4-3.7,1
			c-0.2,0.5-0.5,0.9-0.8,1.3c-0.1,0.2-0.7,0.8-0.1,0.1c-0.1,0.2-0.3,0.4-0.4,0.5c-0.3,0.3-0.6,0.7-1,1c-0.1,0.1-0.3,0.3-0.5,0.4
			c-0.4,0.3,0.5-0.4,0.2-0.1c-0.1,0.1-0.2,0.1-0.3,0.2c-0.7,0.5-1.5,0.9-2.3,1.3c-0.2,0.1-0.6,0.3,0.2-0.1c-0.1,0-0.2,0.1-0.4,0.1
			c-0.2,0.1-0.4,0.2-0.6,0.2c-0.5,0.2-1,0.4-1.5,0.5c-1.3,0.4-2.3,1.9-1.9,3.3C432.2,476.1,433.6,477.1,435,476.6L435,476.6z"/>
	</g>
	<g>
		<path class="st0" d="M440.8,467.3c-0.3,3.7-0.8,7.5,0.4,11.1c0.4,1.3,1.9,2.3,3.3,1.9c1.3-0.4,2.3-1.9,1.9-3.3
			c-0.1-0.4-0.2-0.8-0.3-1.2c0-0.2-0.1-0.4-0.1-0.6c0-0.3,0-0.2,0,0.2c0-0.1,0-0.2,0-0.3c-0.1-0.8-0.1-1.7-0.1-2.5
			c0-1.7,0.2-3.4,0.3-5.1c0.1-1.4-1.3-2.7-2.7-2.7C441.9,464.7,440.9,465.8,440.8,467.3L440.8,467.3z"/>
	</g>
	<g>
		<path class="st0" d="M443,481c6.6,1.7,13.6,2.3,20.4,2.3c3.1,0,6.1-0.1,9.2-0.5c1.7-0.2,2.2-0.5,3.5,0.5c0.6,0.5,1.2,1,1.9,1.5
			c3.9,2.6,8.6,4.4,12.9,6.1c3.9,1.5,7.9,3.2,12,3.8c3.4,0.4,3.4-4.9,0-5.4c0.8,0.1-0.4-0.1-0.5-0.1c-0.3-0.1-0.6-0.2-1-0.3
			c-1-0.3-1.9-0.6-2.8-0.9c-2.4-0.8-4.8-1.7-7.1-2.6c-3.6-1.4-8.5-3.2-11.2-5.5c-2.3-1.9-3.7-3.1-6.8-2.6c-2.8,0.4-5.7,0.5-8.6,0.6
			c-6.8,0.1-13.8-0.4-20.4-2.1C441.1,474.9,439.6,480.1,443,481L443,481z"/>
	</g>
	<g>
		<path class="st0" d="M280.2,240c-9,10.3-16.2,21.5-21.3,34.2c-5.1,12.5-8.2,25.4-9.8,38.9c-1,8.7-1.5,17.5-1.8,26.2
			c-0.1,3.5,5.3,3.5,5.4,0c0.6-17.8,1.8-36,7.5-52.9c5.2-15.8,12.9-30,23.9-42.5C286.3,241.2,282.5,237.4,280.2,240L280.2,240z"/>
	</g>
	<g>
		<path class="st0" d="M248.9,341.8c9,4.4,19.4,4.6,29.3,4.8c9.3,0.2,19.1,0,28.1-2.6c3.3-0.9,1.9-6.1-1.4-5.2
			c-8.3,2.4-17.3,2.5-25.9,2.4c-9-0.1-19,0-27.3-4.1C248.5,335.6,245.8,340.3,248.9,341.8L248.9,341.8z"/>
	</g>
	<g>
		<path class="st0" d="M307.4,343.3c2.1-2.3,3-5.6,3.9-8.6c0.8-2.8,1.4-5.7,2.5-8.3c0.5-1.3-0.6-3-1.9-3.3c-1.6-0.4-2.7,0.5-3.3,1.9
			c-1.1,2.5-1.6,5.3-2.4,7.9c-0.4,1.5-0.9,2.9-1.4,4.4c0,0.1-0.1,0.3-0.2,0.4c0.4-0.5,0.1-0.2,0,0c-0.1,0.3-0.3,0.6-0.4,0.9
			c-0.1,0.3-0.3,0.5-0.4,0.8c-0.1,0.1-0.3,0.4,0,0.1c0.3-0.4,0,0-0.1,0.1c-0.9,1-1.1,2.8,0,3.8C304.7,344.2,306.4,344.4,307.4,343.3
			L307.4,343.3z"/>
	</g>
	<g>
		<path class="st0" d="M308.7,326.2c1.3,5.5,1.5,11.2,3.1,16.7c0.4,1.3,1.9,2.3,3.3,1.9c1.4-0.4,2.3-1.9,1.9-3.3
			c-1.6-5.4-1.8-11.2-3.1-16.7c-0.3-1.4-2-2.3-3.3-1.9C309.1,323.3,308.3,324.7,308.7,326.2L308.7,326.2z"/>
	</g>
	<g>
		<path class="st0" d="M313.6,345.2c6.2,2.3,13.1,3,19.6,3.5c7.4,0.6,14.9,0.6,22.3,0.4c14.7-0.2,30-0.9,44.2-4.9
			c3.3-0.9,1.9-6.1-1.4-5.2c-13.7,3.9-28.6,4.5-42.8,4.8c-7.2,0.1-14.3,0.1-21.5-0.4c-6.4-0.5-13-1.2-19-3.4
			C311.8,338.9,310.4,344.1,313.6,345.2L313.6,345.2z"/>
	</g>
	<g>
		<path class="st0" d="M401.5,342.9c2.4-5.1,4.1-10.4,4.6-16.1c0.5-5.8-0.3-11.5-1.3-17.2c-0.7-3.4-5.8-2-5.2,1.4
			c1,5,1.6,10.1,1.2,15.3c-0.4,4.8-1.8,9.5-3.9,13.8c-0.6,1.3-0.4,2.9,1,3.7C399,344.6,400.9,344.2,401.5,342.9L401.5,342.9z"/>
	</g>
	<g>
		<path class="st0" d="M400.9,326c0.3,1.3,0.8,2.6,1.3,3.9c0.6,1.5,1.2,3,1.8,4.5c1.3,3.2,2.4,6.6,4.9,9.2c1,1,2.8,1.1,3.8,0
			c1-1.1,1-2.7,0-3.8c-0.2-0.2-0.3-0.4-0.5-0.5c-0.2-0.2-0.2-0.3,0,0c-0.1-0.1-0.1-0.2-0.2-0.3c-0.3-0.4-0.5-0.8-0.8-1.2
			c-0.2-0.4-0.5-0.9-0.7-1.3c-0.1-0.1-0.3-0.7-0.1-0.1c-0.1-0.2-0.1-0.4-0.2-0.5c-0.4-1-0.8-2-1.2-3c-0.6-1.4-1.2-2.9-1.7-4.4
			c-0.5-1.2-1-2.5-1.2-3.7c-0.3-1.4-2-2.3-3.3-1.9C401.3,323.1,400.6,324.5,400.9,326L400.9,326z"/>
	</g>
	<g>
		<path class="st0" d="M411,344.7c25.3,3,51.8,1.6,76-6.7c3.2-1.1,1.9-6.3-1.4-5.2c-23.9,8.2-49.7,9.5-74.6,6.5
			C407.5,338.9,407.6,344.3,411,344.7L411,344.7z"/>
	</g>
	<g>
		<path class="st0" d="M488.4,336.3c4.3-15.9,0.7-33.2-4.6-48.4c-2.6-7.4-5.8-14.7-10.1-21.3c-4.5-7.1-10-13.4-15.9-19.4
			c-2.4-2.5-6.2,1.3-3.8,3.8c5.5,5.7,10.8,11.6,15.1,18.3c4,6.3,7,13,9.5,20.1c5,14.3,8.6,30.6,4.6,45.5
			C482.4,338.2,487.5,339.6,488.4,336.3L488.4,336.3z"/>
	</g>
	<g>
		<path class="st0" d="M249,460c-1.4-4.1-2.7-8.3-4.1-12.4c-0.4-1.3-1.9-2.3-3.3-1.9c-1.3,0.4-2.3,1.9-1.9,3.3
			c1.4,4.1,2.7,8.3,4.1,12.4c0.4,1.3,1.9,2.3,3.3,1.9C248.4,462.9,249.4,461.4,249,460L249,460z"/>
	</g>
	<g>
		<path class="st0" d="M479.2,478.8c4.5-9.1,7.3-18.7,8.4-28.8c0.2-1.4-1.3-2.7-2.7-2.7c-1.6,0-2.5,1.2-2.7,2.7
			c-1,9.1-3.6,17.9-7.7,26.1C473,479.2,477.7,481.9,479.2,478.8L479.2,478.8z"/>
	</g>
	<g>
		<path class="st0" d="M287.4,341.9c-1.1-12.5-2.1-25.4,2.5-37.4c1.2-3.2-3.9-4.6-5.2-1.4c-4.8,12.4-3.8,25.9-2.7,38.8
			C282.3,345.3,287.7,345.4,287.4,341.9L287.4,341.9z"/>
	</g>
	<g>
		<path class="st0" d="M459,340c0.7-13.2-1.9-26.4-6.3-38.8c-1.2-3.2-6.3-1.8-5.2,1.4c4.3,12,6.8,24.6,6.1,37.4
			C453.5,343.5,458.9,343.5,459,340L459,340z"/>
	</g>
	<g>
		<path class="st0" d="M348.3,257.2c-0.1,5.1-0.4,10.2,0,15.3c0.4,5.2,1.3,10.4,2,15.6c0.2,1.4,2,2.2,3.3,1.9
			c1.5-0.4,2.1-1.9,1.9-3.3c-0.7-4.8-1.5-9.6-1.8-14.4c-0.3-5-0.1-10,0.1-15C353.8,253.7,348.4,253.7,348.3,257.2L348.3,257.2z"/>
	</g>
	<polygon class="st0" points="618.3,380 565.1,378.8 617.9,383.9 617,421.9 622.6,384.1 660.4,384 623.1,380.1 621.4,343.7 	"/>
	<polygon class="st0" points="97,380 149.5,379.6 97.3,383.9 97.7,421.9 92.7,384.1 55.5,383.4 92.3,380 94.5,343.7 	"/>
	<path class="st0" d="M472.1,609.4c-0.2,0-0.7-0.1-1-0.4l-11.8-15.2c-1.3-1.7-2.8-3.6-1.5-5.5c0.8-1.2,2.4-2.2,3.9-3
		c0.4-0.2,0.8-0.5,1.2-0.7l0.9-0.6c1.4-0.9,2.9-1.8,4.3-2.8c0.7-0.5,1.3-1,1.9-1.6c1-0.9,2.1-1.8,3.2-2.4c1-0.5,2-0.7,3-0.7
		c1.1,0,2.2,0.3,3.2,1c1.5,1,2.8,2.5,4,3.9c0.3,0.3,0.6,0.7,0.9,1l1.8,2.1c2.8,3.2,5.7,6.6,8.1,10.1c0.3,0.5,0.4,0.9,0.1,1.4
		c-0.3,0.5-0.9,0.9-1.6,0.9l0,0c-0.4,0-0.9-0.1-1.3-0.7c-0.3-0.5-0.6-0.9-0.9-1.4l-0.8-1.2l0,1.4c0,0.3-0.1,1.1-1.1,1.4
		c-5.8,1.6-11.1,4.8-15.4,9l-0.3,0.3l0.5,0.7c0.5,0.6,0.8,1.6,0,2.3C473,609.2,472.5,609.4,472.1,609.4z M461.2,591
		c0.1,0.2,0.2,0.3,0.3,0.4l9.3,12l0.4-0.4c4.6-4.5,10.3-7.7,16.5-9.5c0.2,0,0.3-0.1,0.5-0.1c0.1,0,0.2,0,0.2,0l1.2,0.2l-0.8-1
		c-1.6-2-3.3-4-5-6c-0.6-0.7-1.3-1.5-1.9-2.2c-0.3-0.3-0.6-0.7-0.9-1.1c-0.9-1.2-1.9-2.4-3.1-3.2c-0.5-0.4-1.1-0.5-1.7-0.5
		c-1.2,0-2.3,0.7-3.1,1.5c-2.4,2-5.2,4-8.9,6.2c-0.9,0.5-1.7,1.1-2.6,1.6c-0.1,0.1-0.2,0.1-0.3,0.2c-0.1,0.1-0.3,0.2-0.4,0.3
		l-0.6,0.3c0,0,0.5,0.5,0.5,0.6l0,0.3l0.2,0C461.1,590.9,461.2,591,461.2,591z"/>
</g>
</svg>
